<svg xmlns="http://www.w3.org/2000/svg" xmlns:xlink="http://www.w3.org/1999/xlink" width="1024" height="181" viewBox="-1.339 -1.339 268.426 47.327"><defs><radialGradient xlink:href="#a" id="c" cx="0" cy="0" r="1" fx="0" fy="0" gradientTransform="matrix(207.038 -2.8907 .43358 31.05341 447.422 99.089)" gradientUnits="userSpaceOnUse"/><radialGradient id="a" cx="0" cy="0" r="1" fx="0" fy="0" gradientTransform="matrix(207.038 -2.8907 .43358 31.05341 447.422 99.089)" gradientUnits="userSpaceOnUse"><stop offset="0" style="stop-color:#fff;stop-opacity:1"/><stop offset=".031" style="stop-color:#fff;stop-opacity:1"/><stop offset=".043" style="stop-color:#fcfdfb;stop-opacity:1"/><stop offset=".047" style="stop-color:#f7faf6;stop-opacity:1"/><stop offset=".051" style="stop-color:#f3f7f1;stop-opacity:1"/><stop offset=".055" style="stop-color:#eef3ec;stop-opacity:1"/><stop offset=".059" style="stop-color:#eaf1e7;stop-opacity:1"/><stop offset=".063" style="stop-color:#e6efe3;stop-opacity:1"/><stop offset=".066" style="stop-color:#e2edde;stop-opacity:1"/><stop offset=".07" style="stop-color:#deead9;stop-opacity:1"/><stop offset=".074" style="stop-color:#dae7d5;stop-opacity:1"/><stop offset=".078" style="stop-color:#d7e5d0;stop-opacity:1"/><stop offset=".082" style="stop-color:#d2e2cc;stop-opacity:1"/><stop offset=".086" style="stop-color:#cee0c8;stop-opacity:1"/><stop offset=".09" style="stop-color:#cbdec4;stop-opacity:1"/><stop offset=".094" style="stop-color:#c7dcbf;stop-opacity:1"/><stop offset=".098" style="stop-color:#c4d9ba;stop-opacity:1"/><stop offset=".102" style="stop-color:#c0d7b6;stop-opacity:1"/><stop offset=".105" style="stop-color:#bcd5b2;stop-opacity:1"/><stop offset=".109" style="stop-color:#b8d2ad;stop-opacity:1"/><stop offset=".113" style="stop-color:#b4d0a8;stop-opacity:1"/><stop offset=".117" style="stop-color:#b0cda4;stop-opacity:1"/><stop offset=".121" style="stop-color:#accba0;stop-opacity:1"/><stop offset=".125" style="stop-color:#a8c89c;stop-opacity:1"/><stop offset=".129" style="stop-color:#a4c697;stop-opacity:1"/><stop offset=".133" style="stop-color:#a1c493;stop-opacity:1"/><stop offset=".137" style="stop-color:#9dc28f;stop-opacity:1"/><stop offset=".141" style="stop-color:#99c08b;stop-opacity:1"/><stop offset=".145" style="stop-color:#95bd87;stop-opacity:1"/><stop offset=".148" style="stop-color:#91bb82;stop-opacity:1"/><stop offset=".152" style="stop-color:#8eb97f;stop-opacity:1"/><stop offset=".156" style="stop-color:#8ab77b;stop-opacity:1"/><stop offset=".16" style="stop-color:#85b577;stop-opacity:1"/><stop offset=".164" style="stop-color:#82b273;stop-opacity:1"/><stop offset=".168" style="stop-color:#7eb16f;stop-opacity:1"/><stop offset=".172" style="stop-color:#7aaf6b;stop-opacity:1"/><stop offset=".176" style="stop-color:#77ac66;stop-opacity:1"/><stop offset=".18" style="stop-color:#73ab62;stop-opacity:1"/><stop offset=".184" style="stop-color:#6fa95e;stop-opacity:1"/><stop offset=".188" style="stop-color:#6ca75a;stop-opacity:1"/><stop offset=".191" style="stop-color:#68a556;stop-opacity:1"/><stop offset=".195" style="stop-color:#63a351;stop-opacity:1"/><stop offset=".199" style="stop-color:#60a14d;stop-opacity:1"/><stop offset=".203" style="stop-color:#5c9f49;stop-opacity:1"/><stop offset=".207" style="stop-color:#579d46;stop-opacity:1"/><stop offset=".211" style="stop-color:#549c43;stop-opacity:1"/><stop offset=".215" style="stop-color:#509a3f;stop-opacity:1"/><stop offset=".219" style="stop-color:#4b983c;stop-opacity:1"/><stop offset=".223" style="stop-color:#46973a;stop-opacity:1"/><stop offset=".227" style="stop-color:#429539;stop-opacity:1"/><stop offset=".23" style="stop-color:#409338;stop-opacity:1"/><stop offset=".234" style="stop-color:#3d9137;stop-opacity:1"/><stop offset=".238" style="stop-color:#3b8f37;stop-opacity:1"/><stop offset=".242" style="stop-color:#398e36;stop-opacity:1"/><stop offset=".246" style="stop-color:#378c36;stop-opacity:1"/><stop offset=".25" style="stop-color:#358b36;stop-opacity:1"/><stop offset=".254" style="stop-color:#338935;stop-opacity:1"/><stop offset=".258" style="stop-color:#318835;stop-opacity:1"/><stop offset=".262" style="stop-color:#2f8634;stop-opacity:1"/><stop offset=".266" style="stop-color:#2d8433;stop-opacity:1"/><stop offset=".27" style="stop-color:#2b8333;stop-opacity:1"/><stop offset=".273" style="stop-color:#298232;stop-opacity:1"/><stop offset=".277" style="stop-color:#278031;stop-opacity:1"/><stop offset=".281" style="stop-color:#247e31;stop-opacity:1"/><stop offset=".285" style="stop-color:#217d31;stop-opacity:1"/><stop offset=".289" style="stop-color:#1f7c31;stop-opacity:1"/><stop offset=".293" style="stop-color:#1e7b30;stop-opacity:1"/><stop offset=".297" style="stop-color:#1c7a2f;stop-opacity:1"/><stop offset=".301" style="stop-color:#1a792f;stop-opacity:1"/><stop offset=".305" style="stop-color:#18782f;stop-opacity:1"/><stop offset=".309" style="stop-color:#15762e;stop-opacity:1"/><stop offset=".313" style="stop-color:#13752d;stop-opacity:1"/><stop offset=".316" style="stop-color:#10742d;stop-opacity:1"/><stop offset=".32" style="stop-color:#0e732d;stop-opacity:1"/><stop offset=".324" style="stop-color:#0b722c;stop-opacity:1"/><stop offset=".328" style="stop-color:#08712b;stop-opacity:1"/><stop offset=".332" style="stop-color:#05702b;stop-opacity:1"/><stop offset=".336" style="stop-color:#026f2b;stop-opacity:1"/><stop offset=".34" style="stop-color:#016e2b;stop-opacity:1"/><stop offset=".344" style="stop-color:#006d2a;stop-opacity:1"/><stop offset=".348" style="stop-color:#006c2a;stop-opacity:1"/><stop offset=".352" style="stop-color:#006c29;stop-opacity:1"/><stop offset=".359" style="stop-color:#006b29;stop-opacity:1"/><stop offset=".363" style="stop-color:#006929;stop-opacity:1"/><stop offset=".367" style="stop-color:#006828;stop-opacity:1"/><stop offset=".375" style="stop-color:#006827;stop-opacity:1"/><stop offset=".379" style="stop-color:#006727;stop-opacity:1"/><stop offset=".383" style="stop-color:#006727;stop-opacity:1"/><stop offset=".387" style="stop-color:#006627;stop-opacity:1"/><stop offset=".391" style="stop-color:#006526;stop-opacity:1"/><stop offset=".398" style="stop-color:#006526;stop-opacity:1"/><stop offset=".406" style="stop-color:#006425;stop-opacity:1"/><stop offset=".414" style="stop-color:#006425;stop-opacity:1"/><stop offset=".43" style="stop-color:#006325;stop-opacity:1"/><stop offset=".434" style="stop-color:#006225;stop-opacity:1"/><stop offset="1" style="stop-color:#006225;stop-opacity:1"/></radialGradient><clipPath id="b"><path d="m485.02 82.914-2.083 8.578h9.297l-2.222 9.504c6.965.457 12.84.89 17.332 1.223l3.222-10.727h10.383l2.89-8.578zm-45.856 0-1.266 15.7c5.454.128 10.754.296 15.86.491l1.02-7.554h4.41c5.8 0 5.175 2.48 4.464 6.82-.066.41-.129.785-.187 1.14 5.562.255 10.828.532 15.73.817 1.012-4.316 2.051-8.777 2.051-8.777 1.027-5.485-2.644-8.637-8.875-8.637zm-16.113 0-.793 15.453q5.167.043 10.207.133l1.043-15.586zm-33.633 0 .902 15.89c8.551-.296 16.88-.468 24.446-.468q2.092.001 4.171.008l-10.32-15.43zm-39.395 0 3.059 17.79c9.027-.599 18.742-1.145 28.41-1.56l-.332-3.18h-11.887l-.652-4.554h16.39l-.648-8.496zm-38.78 0 5.89 20.953c2.172-.265 5.183-.605 7.562-.86 1.2-.12 2.461-.241 3.774-.366q2.567-.239 5.386-.485a905 905 0 0 1 10.649-.847l-1.05-4.497H332.57l-1.238-5.32h15.91l-1.8-8.578zm0 0"/></clipPath></defs><path d="M209.941 21.768c-6.128-.357-12.714-.704-19.663-1.02-.2 1.176-.37 2.138-.566 3.114 6.758.269 13.364.557 19.54.85.226-.952.455-1.943.69-2.944m35.185 2.363c-5.615-.415-12.959-.957-21.665-1.528l-.65 2.763c10.264.518 18.12.957 21.592 1.177zm-66.982-3.897c-6.382-.239-13.008-.449-19.825-.61l-.254 3.179c6.778.176 13.628.39 19.654.6zm-90.333.054A1518 1518 0 0 0 52.3 22.236l.356 2.066c12.94-.572 26.294-1.09 35.445-1.27zm-46.235 2.705c-9.385.694-17.861 1.426-24.765 2.124l.761.923c.362-.024.708-.049 1.118-.068 5.381-.298 13.843-.733 23.306-1.182zm94.56-.625-1.04-2.363-.478-.718q-2.6-.009-5.215-.01c-9.463 0-19.868.215-30.556.581l.16 2.862c9-.225 21.534-.381 31.695-.381 1.626 0 3.457.01 5.435.03m15.385-2.887c-4.194-.073-8.447-.131-12.749-.166l-.16 3.081c3.871.054 8.198.137 12.7.24zm0 0" style="fill:#fff;fill-opacity:1;fill-rule:nonzero;stroke:none"/><path d="M189.019 27.1c-1.382 6.157-4.62 7.636-9.395 7.636h-3.437l1.533-11.333c-6.026-.215-12.881-.424-19.658-.6l-1.763 21.845h32.993c7.305 0 15.981-3.7 18.325-13.061.171-.66.845-3.501 1.636-6.88-6.177-.283-12.783-.576-19.541-.845-.195.982-.41 1.983-.693 3.238m-50.66.312-2.221-5.044a542 542 0 0 0-5.435-.029c-10.161 0-22.695.156-31.694.376l1.245 21.929h11.455l-.24-22.159 16.558 22.159h21.812l1.474-22.007c-4.501-.103-8.828-.186-12.7-.24zm-63.173 7.442-.835-5.845h14.375l-.625-5.977c-9.156.18-22.5.698-35.445 1.27l3.501 20.346h38.404l-.718-9.794zM218.3 44.648h20.664l5.44-18.105c-3.477-.22-11.334-.66-21.593-1.177zM.01.014 7.354 26.2l5.186 18.44h20.375l-3.344-14.532H43.23l-1.22-5.312a3160 3160 0 0 0-24.437 1.25s-.52-.654-.75-.938c1.5-.151 3.078-.28 4.719-.437 2.139-.2 4.37-.42 6.719-.625 4.155-.357 8.62-.716 13.312-1.063L40.26 17.39H26.666l-1.562-6.657H45.01L42.76.014z" style="fill:#004511;fill-opacity:1;fill-rule:nonzero;stroke:none"/><g clip-path="url(#b)" transform="translate(-389.053 -103.643)scale(1.25)"><path d="m310.95 82.918.335 23.918 212.848-2.973-.336-23.918z" style="fill:url(#c);fill-rule:nonzero;stroke:none"/></g></svg>