<svg xmlns="http://www.w3.org/2000/svg" width="112" height="29.95"><path d="M70.8 7.16h4.1v1h-4.1zM2.5 1.36l-.4 9.5v.2c0 .8.2 1 1.5 1.1v.4a14 14 0 0 0-1.8-.1 14 14 0 0 0-1.8.1v-.4c1.3-.1 1.5-.2 1.5-1.2l.4-9v-.1c0-.8-.3-1-1.5-1.1v-.5a8.6 8.6 0 0 0 1.5.1 9.7 9.7 0 0 0 1.7-.1L7 9.56l3.5-9.3a12 12 0 0 0 1.8.1 8.6 8.6 0 0 0 1.5-.1v.5c-1.2.1-1.5.3-1.5 1.1V2l.2 9c0 1 .2 1.1 1.5 1.2v.4a22 22 0 0 0-2.3-.1 22 22 0 0 0-2.3.1v-.4c1.2-.1 1.5-.3 1.5-1.1V11l-.2-9.5-3.1 8.06-.2.6-.3.7-.2.7-.2.6h-.3l-.2-.6-.3-.7-.2-.7-.2-.7Zm16.2 10.8c-1.7 0-2.4-1.3-2.4-4.2h5.5c0-2.8-1.2-4.3-3.4-4.3s-3.6 1.8-3.6 4.6 1.4 4.5 3.7 4.5a3 3 0 0 0 3.2-3H21c-.2 1.5-1 2.4-2.3 2.4m-2.4-4.9c.2-2.1.9-3.2 2.1-3.2s1.8 1 1.9 3.2Zm6.5-3V4a13.3 13.3 0 0 0 2.4-.4c.1.7.1 1 .2 1.5v.2a2.43 2.43 0 0 1 2.1-1.7 1.5 1.5 0 0 1 1.6 1.5.82.82 0 0 1-.8.9c-.4 0-.8-.3-.8-.6v-.5c0-.3-.2-.4-.6-.4-1 0-1.6 1.2-1.6 3v3.8c0 .8.2.9 1.3 1v.4a16 16 0 0 0-2-.1 18 18 0 0 0-2.1.1v-.4c1.1-.1 1.3-.2 1.3-1V5.16c0-.8-.1-.9-1.1-.9Zm13.4-.8v3h-.4q-.45-2.4-2.1-2.4c-1.4 0-2.2 1.5-2.2 4.1s.7 3.9 2.1 3.9c1.1 0 1.8-.8 2-2.4h.8c-.2 2-1.3 3-2.9 3-2.1 0-3.6-1.8-3.6-4.5s1.5-4.6 3.6-4.6a2.36 2.36 0 0 1 1.9.8l.5-.9Zm5.4 8.7c-1.7 0-2.4-1.3-2.4-4.2h5.5c0-2.8-1.2-4.3-3.4-4.3s-3.6 1.8-3.6 4.6 1.4 4.5 3.7 4.5a3 3 0 0 0 3.2-3h-.7c-.2 1.5-1 2.4-2.3 2.4m-2.4-4.9c.2-2.1.9-3.2 2.1-3.2s1.8 1 1.9 3.2Zm14 3.4V.06a20 20 0 0 1-2.8.5v.3c1.2 0 1.3.1 1.3 1.1v3.2c-.7-1.1-1.2-1.4-2.2-1.4-2 0-3.3 1.9-3.3 4.5s1.4 4.5 3.4 4.5a2.47 2.47 0 0 0 2.3-1.5 8 8 0 0 0 .3 1.5 11 11 0 0 1 2.1-.4h.3v-.3c-1.3-.2-1.4-.3-1.4-1.4m-3.5 1.6c-1.3 0-2-1.4-2-4s.6-4 2-4 2.1 1.4 2.1 4.1c-.1 2.5-.8 3.9-2.1 3.9m9.4-.1c-1.7 0-2.4-1.3-2.4-4.2h5.5c0-2.8-1.2-4.3-3.4-4.3s-3.6 1.8-3.6 4.6 1.4 4.5 3.7 4.5a3 3 0 0 0 3.2-3h-.7c-.2 1.5-1 2.4-2.3 2.4m-2.4-4.9c.2-2.1.9-3.2 2.1-3.2s1.8 1 1.9 3.2Zm7 5.5v-3.1h.4c.3 1.7 1.1 2.5 2.4 2.5a1.74 1.74 0 0 0 1.9-1.7c0-.6-.3-1-1.2-1.5l-.7-.3-.9-.3c-1.3-.6-1.8-1.1-1.8-2.2 0-1.5 1.1-2.4 2.8-2.4a3.53 3.53 0 0 1 1.9.6l.3-.8h.3v2.8h-.4c-.2-1.5-.8-2.2-1.9-2.2a1.59 1.59 0 0 0-1.7 1.5c0 .7.3 1 1.9 1.7l.8.3c1.4.6 1.9 1.2 1.9 2.3a2.7 2.7 0 0 1-3 2.6 3.16 3.16 0 0 1-2.2-.8l-.4.8h-.4Zm19.8-9.5A2.71 2.71 0 0 0 82.4 1a3.56 3.56 0 0 0-2.5-.7h-4.8v.5c1.3.1 1.5.2 1.5 1.2v8.9c0 1-.1 1.1-1.5 1.2v.4h4.6a5.7 5.7 0 0 0 2.9-.6A3.5 3.5 0 0 0 84.1 9 2.9 2.9 0 0 0 83 6.56 3 3 0 0 0 81.5 6a2.76 2.76 0 0 0 2-2.7M78.1.86h1.6c1.5 0 2.2.8 2.2 2.5a2.7 2.7 0 0 1-.6 1.9c-.4.5-.9.6-1.9.6h-1.3Zm1.8 5.5a2.4 2.4 0 0 1 1.9.6 3.1 3.1 0 0 1 .7 2.1c0 1.8-.9 2.9-2.6 2.9h-.7c-1 0-1.1-.1-1.1-1v-4.6Zm9.6 5.8c-1.7 0-2.4-1.3-2.4-4.2h5.5c0-2.8-1.2-4.3-3.4-4.3s-3.6 1.8-3.6 4.6 1.4 4.5 3.7 4.5a3 3 0 0 0 3.2-3h-.7c-.2 1.5-1 2.4-2.3 2.4m-2.4-4.9c.2-2.1.9-3.2 2.1-3.2s1.8 1 1.9 3.2Zm6.4-2.9v-.3a7 7 0 0 0 2.4-.6c.1.4.1.9.2 1.6a2.76 2.76 0 0 1 2.5-1.4 2.47 2.47 0 0 1 2.4 1.5 4 4 0 0 1 .3 1.7v4.4c0 .8.2.9 1.3 1v.4a20 20 0 0 0-4 0v-.4c1 0 1.2-.2 1.2-1v-4.5c0-1.6-.5-2.2-1.7-2.2s-1.9.8-1.9 2.3v4.4c0 .7.2.9 1.2 1v.4a16 16 0 0 0-2-.1 16 16 0 0 0-2 .1v-.4c1.1-.1 1.3-.2 1.3-1v-6c0-.8-.1-.9-1-.9zm9.8 8.2 5-8.2H106c-1.2 0-1.5.3-2.1 1.9h-.4l.4-2.4h6.3l-5 8.2h2.1c1.2 0 1.8-.5 2.3-2.2h.4l-.5 2.6h-6.2ZM18.86 19.9h4.66v.58h-2v7.16h-.66v-7.16h-2ZM24 22.15h.58a4 4 0 0 1 .09.84 3 3 0 0 1 0 .35 3.3 3.3 0 0 1 .62-1A1.1 1.1 0 0 1 26 22a1.5 1.5 0 0 1 .73.2v.6a1.9 1.9 0 0 0-.7-.21 1 1 0 0 0-.61.25 1.85 1.85 0 0 0-.49.67 4.2 4.2 0 0 0-.26 1.71v2.42H24v-3.53a17 17 0 0 0 0-1.96m3.74 0h.6v3.42a2.55 2.55 0 0 0 .18 1.17 1.11 1.11 0 0 0 1 .48 1.3 1.3 0 0 0 1.18-.65 2.4 2.4 0 0 0 .3-1.26v-3.16h.6v5.02a2.2 2.2 0 0 0 .11.5h-.61a2.8 2.8 0 0 1-.12-.79 1.75 1.75 0 0 1-.57.71 1.65 1.65 0 0 1-.87.21 1.84 1.84 0 0 1-1.12-.33 1.47 1.47 0 0 1-.63-1 6 6 0 0 1 0-.85Zm9.48 1.77h-.6a2 2 0 0 0-.32-.92 1.22 1.22 0 0 0-1-.5 1.31 1.31 0 0 0-1.1.53 2.9 2.9 0 0 0-.54 1.82 2.7 2.7 0 0 0 .6 1.89 1.37 1.37 0 0 0 1.06.44 1.24 1.24 0 0 0 .94-.37 1.84 1.84 0 0 0 .42-1.07h.62a2.5 2.5 0 0 1-.47 1.33 1.78 1.78 0 0 1-1.48.66 2.14 2.14 0 0 1-1.53-.59 3 3 0 0 1-.8-2.27 3.1 3.1 0 0 1 .89-2.39 2 2 0 0 1 1.4-.53 1.8 1.8 0 0 1 1.34.51 2.18 2.18 0 0 1 .57 1.46m1.44-4.05h.6v7.77h-.6Zm3 2.28h.74l-2.37 2.44 2.54 3.05h-.85l-2.47-3Zm5.48 1.46h-.59a1.2 1.2 0 0 0-.3-.76 1.46 1.46 0 0 0-1.73-.05.8.8 0 0 0-.32.66.68.68 0 0 0 .26.56 3.4 3.4 0 0 0 1 .42 9 9 0 0 1 1 .34 1.6 1.6 0 0 1 .48.34 1.36 1.36 0 0 1 .34 1 1.56 1.56 0 0 1-.47 1.17 2 2 0 0 1-1.44.51 2.07 2.07 0 0 1-1.45-.46 1.7 1.7 0 0 1-.53-1.34H44a1.21 1.21 0 0 0 1.36 1.23 1.47 1.47 0 0 0 .89-.26 1 1 0 0 0 .38-.81.82.82 0 0 0-.34-.71 1.1 1.1 0 0 0-.32-.17L45 25a2.5 2.5 0 0 1-1.13-.6 1.3 1.3 0 0 1-.32-.89 1.3 1.3 0 0 1 .58-1.13 2 2 0 0 1 1.23-.38 1.86 1.86 0 0 1 1.29.42 1.62 1.62 0 0 1 .49 1.19m3.7-1.46h.65l1.58 4.7 1.64-4.7h.63l-1.79 5c-.25.72-.42 1.19-.52 1.42a4 4 0 0 1-.36.63 1.79 1.79 0 0 1-1.52.73H51v-.53a1.43 1.43 0 0 0 1-.32 1.7 1.7 0 0 0 .33-.46c.09-.19.22-.51.39-1Zm7.4-.15a2 2 0 0 1 1.57.7 3.16 3.16 0 0 1 .73 2.2 3.18 3.18 0 0 1-.73 2.2 2 2 0 0 1-1.56.68 2.05 2.05 0 0 1-1.58-.68 3.3 3.3 0 0 1-.67-2.25 3.13 3.13 0 0 1 .72-2.16 2 2 0 0 1 1.52-.69m0 .55a1.36 1.36 0 0 0-1.14.56 2.83 2.83 0 0 0-.53 1.76 2.9 2.9 0 0 0 .53 1.81 1.46 1.46 0 0 0 2.28 0 2.85 2.85 0 0 0 .52-1.78 2.84 2.84 0 0 0-.52-1.79 1.38 1.38 0 0 0-1.13-.57Zm3.76-.4h.6v3.42a2.4 2.4 0 0 0 .19 1.17 1.08 1.08 0 0 0 1 .48 1.3 1.3 0 0 0 1.18-.65 2.3 2.3 0 0 0 .26-1.26v-3.16h.6v5.02a2.2 2.2 0 0 0 .11.5h-.64a3.2 3.2 0 0 1-.12-.79 1.75 1.75 0 0 1-.57.71 1.65 1.65 0 0 1-.87.21 1.86 1.86 0 0 1-1.12-.33 1.5 1.5 0 0 1-.63-1 6 6 0 0 1 0-.85Zm12.33 1.77h-.6a2 2 0 0 0-.32-.88 1.19 1.19 0 0 0-1-.5 1.32 1.32 0 0 0-1.1.53 2.9 2.9 0 0 0-.54 1.82 2.67 2.67 0 0 0 .61 1.89 1.35 1.35 0 0 0 1.06.44 1.2 1.2 0 0 0 .93-.37 1.84 1.84 0 0 0 .42-1.07h.62a2.5 2.5 0 0 1-.47 1.33 1.78 1.78 0 0 1-1.48.66 2.15 2.15 0 0 1-1.53-.59 3 3 0 0 1-.79-2.27 3.08 3.08 0 0 1 .86-2.39 2 2 0 0 1 1.4-.52 1.8 1.8 0 0 1 1.34.51 2.18 2.18 0 0 1 .59 1.41m2.01-.4h-.63a1.63 1.63 0 0 1 .47-1 2 2 0 0 1 1.49-.5 2.12 2.12 0 0 1 1.32.4 1 1 0 0 1 .39.56 5 5 0 0 1 .09 1.16v2.45a3.5 3.5 0 0 0 .15 1.08H79a3.5 3.5 0 0 1-.14-.78 1.72 1.72 0 0 1-1.62.91 1.8 1.8 0 0 1-1.18-.37 1.46 1.46 0 0 1-.55-1.2 1.71 1.71 0 0 1 1.3-1.65 10.3 10.3 0 0 1 2.05-.49v-.29a1.37 1.37 0 0 0-.21-.86 1.26 1.26 0 0 0-1-.37 1.15 1.15 0 0 0-1.31.95m2.53 1a9 9 0 0 0-1.8.5 1.24 1.24 0 0 0-.91 1.13 1 1 0 0 0 .31.76 1.14 1.14 0 0 0 .82.29 1.43 1.43 0 0 0 1.31-.69 2.64 2.64 0 0 0 .27-1.36Zm2.21-2.37h.58a2.6 2.6 0 0 1 .11.82 1.81 1.81 0 0 1 1.69-1 2 2 0 0 1 1 .25 1.3 1.3 0 0 1 .58.68 2.7 2.7 0 0 1 .12.51v4.21h-.6v-3.17a9 9 0 0 0 0-.9 1.7 1.7 0 0 0-.12-.45 1 1 0 0 0-1-.56 1.45 1.45 0 0 0-1.29.67 2.27 2.27 0 0 0-.31 1.28v3.15h-.6v-4.87a3.5 3.5 0 0 0-.16-.62m9.6 0h1.37v.5h-1.38v3.62a1.43 1.43 0 0 0 .12.75.63.63 0 0 0 .51.2A2.1 2.1 0 0 0 92 27v.57a2.9 2.9 0 0 1-.88.14 1.28 1.28 0 0 1-.89-.25 1.12 1.12 0 0 1-.28-.85v-1l.07-3h-.83v-.5h.82v-1.59h.6Zm2.5 0h.57a3.6 3.6 0 0 1 .1.84v.35a3.1 3.1 0 0 1 .62-1 1.07 1.07 0 0 1 .76-.32 1.55 1.55 0 0 1 .74.2v.6a1.9 1.9 0 0 0-.71-.21.93.93 0 0 0-.6.25 1.74 1.74 0 0 0-.49.67 4.2 4.2 0 0 0-.27 1.71v2.42h-.62v-3.55a17 17 0 0 0-.1-1.96m3.82 0h.6v3.42a2.5 2.5 0 0 0 .19 1.17 1.09 1.09 0 0 0 1 .48 1.32 1.32 0 0 0 1.19-.65 2.4 2.4 0 0 0 .26-1.26v-3.16h.6v5.02a3 3 0 0 0 .11.5h-.6a2.5 2.5 0 0 1-.12-.79 1.7 1.7 0 0 1-.58.71 1.6 1.6 0 0 1-.87.21 1.83 1.83 0 0 1-1.11-.33 1.48 1.48 0 0 1-.64-1 8 8 0 0 1 0-.85Zm9 1.46h-.59a1.2 1.2 0 0 0-.3-.76 1.46 1.46 0 0 0-1.73-.05.8.8 0 0 0-.32.66.68.68 0 0 0 .26.56 3.4 3.4 0 0 0 1 .42 9 9 0 0 1 1 .34 1.6 1.6 0 0 1 .48.34 1.36 1.36 0 0 1 .34 1 1.56 1.56 0 0 1-.47 1.17 2 2 0 0 1-1.44.51 2.07 2.07 0 0 1-1.45-.46 1.7 1.7 0 0 1-.58-1.34h.6a1.21 1.21 0 0 0 1.36 1.23 1.47 1.47 0 0 0 .89-.26 1 1 0 0 0 .37-.81.8.8 0 0 0-.34-.71.9.9 0 0 0-.31-.17l-.94-.3a2.5 2.5 0 0 1-1.13-.6 1.3 1.3 0 0 1-.32-.89 1.3 1.3 0 0 1 .58-1.13 2 2 0 0 1 1.21-.36 1.86 1.86 0 0 1 1.29.42 1.66 1.66 0 0 1 .54 1.19m2.33-1.46h1.37v.5h-1.38v3.62a1.43 1.43 0 0 0 .12.75.63.63 0 0 0 .51.2 2 2 0 0 0 .79-.19v.57a2.9 2.9 0 0 1-.88.14 1.28 1.28 0 0 1-.89-.25 1.12 1.12 0 0 1-.28-.85v-1l.07-3h-.83v-.5h.82v-1.59h.6Z" style="fill:#000"/></svg>