<svg xmlns="http://www.w3.org/2000/svg" width="1024" height="257" version="1.0" viewBox="0 0 544.384 136.482"><path d="M494.887 464.122c-13.892.017-26.708 2.284-33.168 14.281l-24.495 65.415c-.991 3.106-2.559 6.828-.364 10.342 4.955 7.241 13.879 7.494 22.162 7.494l5.738-16.808h-10.042l24.902-63.916h15.503l-29.935 80.724h17.9l36.83-96.74c-7.964 0-16.696-.803-25.031-.792m-264.377.32-6.08 16.038h17.836l6.08-16.037zm109.802 0c-11.76.19-20.657 2.31-22.161 12.313.07 22.345 1.477 68.09 1.477 68.09h-23.425l-5.653 16.81c13.734 0 27.955 1.393 38.928-3.148 3.893-2.7 5.808-6.829 6.445-10.964 0-21.938-1.71-45.553-1.285-66.87 7.646-.193 16.016.429 22.954-.407l6.017-15.352c-8.15 0-16.24-.585-23.297-.471m-48.413.044c-14.33-.057-27.956 1.714-34.623 13.703l-25.074 66.036c-1.416 3.106-2.26 7.235-.278 10.77 2.123 3.3 6.087 5.845 9.485 6.66h37.236l6.38-16.81H251.11l23.296-63.915 15.995-.043-12.247 32.226h-9.336l-6.167 16.337c13.734 1.243 27.26-.207 32.782-13.254l19.528-51.282h-3.683c-6.216 0-12.864-.403-19.378-.428m97.019.02c-4.92.023-9.983.56-14.496.408l-35.823 96.74h18.136l30.727-80.724 10.47.171-30.084 80.553h18.608l30.105-80.767c3.61-.835 7.982-.407 11.734-.214l.214.428-30.362 80.553h18.907l35.737-96.74c-16.141.407-33.627-3.476-43.467 9.357-4.38-8.409-12.206-9.8-20.406-9.764m234.614.108c-13.031.017-25.01 1.966-31.69 14.004l-31.37 83.036h17.837l31.09-81.174 13.447.193-30.298 80.981h18.393l36.251-96.74c-7.645.385-15.842-.31-23.66-.3m-63.038.043c-13.052.023-25.374 1.896-32.011 13.532L496.9 561.654h17.622l31.219-80.724 13.597-.043-30.299 80.767h17.558l37.086-96.74c-7.273.385-15.358-.271-23.189-.257m-362.68.085-29.892 80.104h-13.725l30.299-79.932H166.08l-30.79 79.932h-12.805l29.377-79.932h-18.329l-30.726 82.63.128 6.209c.85 2.678 3.548 4.753 6.167 5.995 12.46 3.107 27.466 2.275 35.395-7.044.424 2.7 2.689 4.967 5.096 6.21 8.849 4.134 20.257 2.27 29.955 2.076l36.872-96.248zm25.052 20.02-29.656 76.421h18.886l28.756-76.313zm334.16 95.863c-1.487 0-2.642.498-3.49 1.478q-1.265 1.472-1.264 4.025c0 1.47.308 2.602.92 3.426s1.585 1.434 2.955 1.82l1.135.321q1.402.4 2.013 1.2c.412.532.62 1.26.62 2.205 0 1.083-.285 1.921-.856 2.505-.57.584-1.391.878-2.44.878-.692 0-1.383-.149-2.099-.45-.716-.3-1.46-.756-2.205-1.348v2.676c.776.404 1.526.715 2.248.92.728.207 1.412.322 2.055.322 1.705 0 2.997-.494 3.876-1.456q1.328-1.443 1.328-4.24c0-1.563-.33-2.798-.985-3.725-.65-.937-1.649-1.6-3.02-1.97l-1.113-.322c-1.007-.266-1.692-.62-2.056-1.049-.357-.438-.535-1.076-.535-1.927 0-1.014.274-1.784.814-2.334.546-.55 1.312-.835 2.312-.835.577 0 1.18.11 1.799.343.619.232 1.272.598 1.97 1.07v-2.548a11 11 0 0 0-2.034-.728 8.2 8.2 0 0 0-1.949-.257m-453.661.364v19.229h1.777v-16.895l3.49 13.19h1.863l3.49-13.19v16.895h1.799v-19.229h-2.741l-3.49 13.083-3.469-13.083zm26.936 0-5.182 19.229h1.928l1.241-4.925h6.124l1.242 4.925h1.906l-5.182-19.229zm16.423 0v19.229h1.799v-16.102l6.017 16.102h2.484v-19.229h-1.799v16.08l-6.017-16.08zm20.15 0v12.013c0 2.508.432 4.394 1.305 5.674.88 1.28 2.181 1.927 3.897 1.927 1.71 0 3.003-.647 3.876-1.927.88-1.28 1.306-3.166 1.306-5.674v-12.013h-1.841v11.691q0 3.091-.792 4.454c-.528.902-1.372 1.35-2.549 1.35q-1.775.001-2.569-1.35-.792-1.363-.792-4.454v-11.69zm20.17 0v19.229h1.82v-9.186h5.396v-2.184h-5.396v-5.675h5.974v-2.184zm17.6 0-5.181 19.229h1.927l1.242-4.925h6.124l1.241 4.925h1.906l-5.182-19.229zm16.424 0v19.229h1.841v-9.272l6.53 9.272h2.42l-7.216-10.257 6.724-8.972h-2.355l-6.103 8.116v-8.116zm16.123 0v2.184h4.818v17.045h1.841v-17.045h4.84v-2.184zm18.522 0v12.013c0 2.508.432 4.394 1.306 5.674.88 1.28 2.18 1.927 3.897 1.927 1.71 0 3.002-.647 3.875-1.927.88-1.28 1.306-3.166 1.306-5.674v-12.013h-1.841v11.691q0 3.091-.792 4.454c-.528.902-1.372 1.35-2.548 1.35q-1.776.001-2.57-1.35-.791-1.363-.792-4.454v-11.69zm20.17 0v19.229h1.82v-8.137h2.013c.727 0 1.294.221 1.713.642.424.421.857 1.281 1.306 2.57l1.756 4.925h1.97l-1.863-5.246c-.376-1.083-.76-1.951-1.135-2.57-.37-.618-.762-1.01-1.156-1.199.758-.31 1.34-.871 1.734-1.67q.6-1.201.6-3.02c0-1.855-.371-3.234-1.135-4.153-.765-.92-1.938-1.37-3.49-1.37zm29.784 0v19.229h3.769c2.62 0 4.565-.78 5.803-2.334s1.841-3.986 1.841-7.302c0-3.299-.61-5.712-1.841-7.259-1.232-1.555-3.17-2.334-5.803-2.334zm19.956 0v19.229h8.758v-2.185h-6.916v-6.98h6.466v-2.184h-6.466v-5.696h6.745v-2.184zm16.852 0v19.229h1.82v-8.137h2.013c.727 0 1.294.221 1.713.642.424.421.857 1.281 1.306 2.57l1.756 4.925h1.97l-1.863-5.246c-.376-1.083-.76-1.951-1.135-2.57-.37-.618-.762-1.01-1.156-1.199.758-.31 1.34-.871 1.734-1.67q.6-1.201.6-3.02c0-1.855-.371-3.234-1.135-4.153-.765-.92-1.938-1.37-3.49-1.37zm29.784 0v19.229h1.842v-19.229zm11.798 0v19.229h1.778v-16.102l6.016 16.102h2.484v-19.229h-1.777v16.08l-6.038-16.08zm20.342 0v19.229h3.769c2.62 0 4.565-.78 5.802-2.334 1.238-1.555 1.842-3.986 1.842-7.302 0-3.299-.61-5.712-1.842-7.259-1.231-1.555-3.17-2.334-5.802-2.334zm19.956 0v19.229h1.842v-19.229zm9.336 0 5.182 19.229h2.077l5.181-19.229h-1.905l-4.326 16.188-4.303-16.188zm20.855 0v19.229h1.842v-19.229zm11.799 0v19.229h3.768c2.62 0 4.544-.78 5.781-2.334s1.863-3.986 1.863-7.302c0-3.299-.61-5.712-1.841-7.259-1.231-1.555-3.17-2.334-5.803-2.334zm19.742 0v12.013c0 2.508.432 4.394 1.306 5.674.88 1.28 2.18 1.927 3.897 1.927 1.71 0 3.002-.647 3.875-1.927.88-1.28 1.306-3.166 1.306-5.674v-12.013h-1.841v11.691q0 3.091-.792 4.454c-.528.902-1.372 1.35-2.548 1.35q-1.776.001-2.57-1.35-.791-1.363-.792-4.454v-11.69zm22.482 0-5.181 19.229h1.948l1.22-4.925h6.125l1.241 4.925h1.906l-5.16-19.229zm16.445 0v19.229h8.436v-2.185h-6.595V580.99zm16.06 0v19.229h1.84v-19.229zm24.794 0v2.184h4.818v17.045h1.842v-17.045h4.839v-2.184zm18.736 0v19.229h8.736v-2.185h-6.916v-6.98h6.467v-2.184h-6.467v-5.696h6.766v-2.184zm16.83 0v19.229h1.777v-16.102l6.039 16.102h2.462v-19.229h-1.777v16.08l-6.017-16.08zm-323.731 2.142h2.312c.886 0 1.564.28 2.013.856.455.567.685 1.401.685 2.527 0 1.125-.23 1.985-.685 2.57-.449.575-1.127.877-2.013.877h-2.312zm29.806 0h2.205c1.874 0 3.265.595 4.133 1.798q1.308 1.79 1.306 5.653.002 3.892-1.306 5.696c-.868 1.202-2.259 1.798-4.133 1.798h-2.205zm36.786 0h2.312c.886 0 1.564.28 2.013.856.455.567.685 1.401.685 2.527 0 1.125-.23 1.985-.685 2.57-.449.575-1.127.877-2.013.877h-2.312zm61.945 0h2.227c1.874 0 3.244.595 4.111 1.798.874 1.194 1.307 3.076 1.307 5.653 0 2.595-.433 4.493-1.307 5.696-.867 1.202-2.237 1.798-4.11 1.798h-2.228zm61.925 0h2.226c1.875 0 3.244.595 4.112 1.798q1.308 1.79 1.306 5.653.002 3.892-1.306 5.696c-.868 1.202-2.237 1.798-4.112 1.798h-2.226zm-336.836.406 2.505 9.593h-4.989zm74.343 0 2.505 9.593h-4.989zm303.947 0 2.505 9.593h-5.01z" style="fill:#4f4c4c;fill-opacity:1;fill-rule:nonzero;stroke:none" transform="translate(-102.808 -464.121)"/></svg>